<?xml version="1.0" standalone="no"?>
<!DOCTYPE svg PUBLIC "-//W3C//DTD SVG 20010904//EN"
 "http://www.w3.org/TR/2001/REC-SVG-20010904/DTD/svg10.dtd">
<svg version="1.0" xmlns="http://www.w3.org/2000/svg"
 width="250.000000pt" height="250.000000pt" viewBox="0 0 250.000000 250.000000"
 preserveAspectRatio="xMidYMid meet">

<g transform="translate(0.000000,250.000000) scale(0.100000,-0.100000)"
fill="#000000" stroke="none">
<path d="M110 2478 c-26 -14 -57 -41 -75 -66 l-30 -44 -3 -1090 c-1 -744 1
-1102 8 -1129 14 -50 64 -107 115 -130 38 -18 97 -19 1115 -19 720 0 1087 4
1113 11 49 13 105 63 128 114 18 38 19 97 19 1130 l0 1091 -22 44 c-14 26 -41
57 -66 75 l-44 30 -1106 3 -1107 2 -45 -22z m1145 -164 c646 -110 670 -115
734 -157 43 -29 88 -109 146 -262 22 -55 91 -233 156 -395 64 -162 122 -319
129 -348 21 -92 -2 -150 -109 -271 -56 -63 -99 -82 -85 -38 4 12 7 29 7 37 0
8 5 18 11 23 7 5 5 12 -6 21 -10 7 -18 18 -18 25 0 6 -6 11 -14 11 -19 0 -26
21 -14 44 12 22 -1 33 -50 42 -27 5 -36 2 -48 -15 -17 -23 -35 -28 -32 -8 4
17 -44 10 -55 -8 -4 -8 -15 -15 -22 -15 -8 0 -14 -5 -12 -11 1 -6 -4 -14 -12
-17 -9 -3 -11 0 -6 8 5 8 3 11 -6 8 -8 -3 -14 -11 -15 -19 -1 -24 -16 -49 -25
-43 -5 3 -9 -2 -9 -10 0 -9 -5 -16 -11 -16 -5 0 -7 -5 -4 -10 3 -6 -2 -21 -13
-35 -15 -19 -22 -21 -32 -12 -13 12 -13 8 7 -40 4 -10 2 -14 -4 -10 -6 4 -16
-7 -23 -23 -7 -17 -16 -30 -21 -30 -5 0 -5 -7 -2 -17 4 -11 3 -14 -6 -9 -7 5
-17 1 -25 -9 -11 -16 -14 -16 -28 -1 -21 21 -25 20 -31 -5 -3 -12 -10 -18 -17
-14 -8 5 -6 14 6 32 13 21 14 27 3 34 -11 7 -11 9 2 9 9 0 19 -7 23 -15 3 -8
15 -15 26 -15 12 0 18 4 15 10 -4 6 -2 17 5 25 16 19 -24 42 -44 26 -8 -6 -20
-9 -28 -6 -8 3 -21 -1 -28 -9 -13 -16 -30 -13 -30 6 0 5 7 7 16 4 12 -5 14 -1
9 17 -4 12 -7 24 -7 27 -1 28 4 40 12 35 6 -3 10 5 10 18 0 31 -24 42 -42 19
-9 -11 -10 -14 0 -8 6 4 12 2 12 -3 0 -17 -27 -13 -34 5 -3 8 -11 12 -16 9 -6
-4 -19 -1 -28 7 -16 12 -16 11 -2 -6 12 -15 12 -20 2 -23 -6 -3 -10 -9 -7 -13
3 -5 1 -11 -5 -15 -5 -3 -10 4 -9 17 0 13 -1 32 -3 43 -2 15 3 21 25 23 15 2
27 7 27 12 0 4 -8 6 -19 3 -10 -3 -22 0 -25 6 -10 16 -26 14 -26 -3 0 -21 -19
-30 -35 -16 -9 8 -15 8 -20 0 -5 -8 -11 -8 -21 1 -10 8 -14 8 -14 0 0 -6 -8
-11 -17 -11 -12 0 -14 3 -6 8 8 5 9 12 2 22 -8 13 -11 13 -19 -1 -15 -26 -56
-32 -86 -13 -17 12 -22 20 -15 27 7 7 7 15 -2 25 -10 13 -9 14 12 2 21 -11 23
-10 17 5 -5 13 -2 16 10 11 12 -4 15 -2 11 9 -5 10 4 17 31 25 21 5 53 25 71
44 19 20 38 33 44 29 5 -3 6 3 2 16 -4 15 -2 21 8 21 29 0 28 76 -1 141 -15
32 -32 59 -39 59 -7 0 -10 6 -7 13 3 8 -8 28 -23 44 -16 17 -27 35 -26 40 6
18 -44 35 -152 52 -59 9 -86 4 -78 -15 3 -8 10 -11 16 -7 6 3 7 1 3 -5 -5 -8
-13 -8 -31 0 -19 8 -28 8 -40 -2 -11 -9 -15 -10 -15 0 0 6 -6 10 -12 8 -7 -3
-13 -14 -13 -26 0 -27 -18 -30 -25 -5 -5 19 -26 23 -48 9 -15 -9 -14 -10 -29
24 l-12 25 0 -23 c-1 -14 -5 -21 -12 -16 -6 3 -9 15 -6 25 6 22 -8 26 -17 4
-7 -19 -60 -20 -76 0 -6 8 -8 20 -4 26 4 7 3 9 -4 5 -5 -3 -13 0 -15 6 -4 10
-8 9 -16 -2 -7 -10 -6 -17 2 -22 8 -5 6 -8 -5 -8 -10 0 -18 -4 -18 -10 0 -5 5
-10 12 -10 8 0 9 -3 2 -10 -6 -6 -18 -8 -27 -5 -12 5 -14 15 -10 43 3 20 10
45 15 56 7 13 6 21 -2 26 -9 5 -10 20 -6 45 6 31 5 37 -7 32 -12 -4 -13 3 -9
40 4 36 2 45 -9 41 -8 -3 -13 -16 -11 -31 2 -21 -1 -25 -23 -23 -24 1 -37 16
-14 16 7 0 10 21 7 60 -1 33 -1 60 2 60 4 0 4 16 2 35 -3 21 0 35 7 35 20 0
101 86 103 111 2 13 10 29 18 34 8 6 15 19 15 30 0 13 6 20 17 19 14 -1 15 2
8 15 -6 13 -4 22 11 34 10 9 24 17 29 17 6 0 10 5 10 11 0 6 -9 8 -22 4 -19
-6 -21 -5 -10 6 17 18 15 30 -5 22 -13 -5 -15 -2 -10 11 4 10 7 22 7 27 0 6 5
7 11 3 8 -4 8 0 0 15 -14 26 3 65 24 57 8 -3 17 0 21 5 4 6 20 8 40 4 21 -4
34 -2 34 5 0 11 14 10 225 -26z m-530 -634 c3 -5 1 -10 -4 -10 -6 0 -11 5 -11
10 0 6 2 10 4 10 3 0 8 -4 11 -10z m138 -211 c-5 -18 -7 -19 -21 -6 -19 20 -8
55 12 38 8 -7 12 -21 9 -32z m-38 -18 c3 -5 1 -12 -5 -16 -5 -3 -10 1 -10 9 0
18 6 21 15 7z m6 -68 c-8 -15 -10 -15 -11 -2 0 17 10 32 18 25 2 -3 -1 -13 -7
-23z m-14 -73 c-3 -11 -1 -20 4 -20 5 0 9 6 10 13 0 6 4 3 8 -8 5 -11 4 -25
-1 -32 -8 -9 -6 -13 4 -13 20 0 52 -36 44 -49 -4 -6 2 -16 12 -22 13 -8 17
-19 14 -32 -4 -14 -2 -18 7 -12 10 6 11 2 6 -16 -4 -13 -7 -26 -7 -29 -1 -65
5 -90 25 -113 12 -15 28 -27 35 -27 7 0 31 -9 55 -19 61 -27 77 -32 77 -21 0
5 6 7 14 4 11 -4 11 -10 2 -29 -10 -21 -13 -22 -27 -9 -17 15 -49 19 -49 5 0
-4 12 -21 26 -36 14 -15 23 -34 20 -42 -8 -19 -31 -11 -30 9 1 10 -7 16 -21
16 -21 0 -22 -4 -14 -30 6 -21 4 -30 -6 -34 -8 -3 -11 -12 -8 -20 3 -8 -4 -17
-18 -23 -21 -8 -22 -10 -6 -16 13 -5 15 -11 7 -20 -7 -9 -7 -15 -1 -19 5 -4
13 -2 16 4 5 8 11 8 20 0 9 -8 15 -8 20 0 7 11 45 -4 45 -19 0 -18 -54 -19
-67 -3 -12 15 -13 14 -11 -8 2 -20 9 -25 33 -26 51 -2 59 -4 51 -11 -4 -4 -15
-8 -24 -8 -9 0 -17 -7 -17 -15 0 -8 9 -15 20 -15 11 0 23 -4 27 -10 4 -5 13
-10 20 -10 8 0 14 -16 15 -43 2 -42 26 -82 38 -62 3 5 1 10 -4 10 -6 0 -11 5
-11 10 0 16 20 11 27 -7 4 -9 20 -29 37 -44 24 -22 27 -28 14 -29 -10 0 -18
-5 -18 -11 0 -6 7 -8 16 -5 9 3 18 6 20 6 2 0 4 9 4 19 0 22 29 36 43 22 7 -7
2 -14 -14 -20 -13 -5 -18 -10 -10 -10 8 -1 27 -15 43 -33 21 -23 28 -27 28
-14 0 9 -6 19 -14 22 -17 6 -30 34 -16 34 5 0 16 -7 25 -16 12 -12 19 -13 30
-4 11 9 16 7 25 -10 9 -17 14 -19 25 -10 8 7 20 10 27 7 8 -4 5 -8 -9 -12 -20
-6 -34 -45 -17 -45 16 0 44 23 44 35 0 9 9 15 21 15 14 0 19 -5 16 -15 -4 -8
-2 -17 4 -20 5 -4 7 -11 4 -16 -4 -5 1 -9 9 -9 9 0 16 5 16 10 0 6 -4 10 -10
10 -5 0 -10 7 -10 15 0 8 5 14 11 12 7 -1 16 13 21 31 5 18 16 36 24 39 12 4
12 7 -3 19 -21 16 -1 19 27 4 15 -8 17 -6 13 10 -7 26 1 25 26 -2 16 -16 23
-18 34 -10 8 7 16 10 18 7 3 -2 5 4 5 14 0 10 -5 18 -11 18 -5 0 -22 1 -37 1
l-28 2 22 22 c14 14 23 18 26 10 5 -17 23 -15 37 5 8 11 14 13 19 5 4 -7 2
-12 -3 -12 -6 0 -11 -5 -11 -11 0 -5 4 -7 10 -4 5 3 20 -1 32 -10 22 -15 22
-16 3 -15 -35 4 -45 0 -45 -15 0 -17 16 -20 25 -5 4 7 12 7 25 0 13 -7 19 -6
24 5 3 9 16 20 28 24 19 8 27 5 44 -15 18 -22 22 -23 34 -10 10 13 10 16 -4
16 -9 0 -16 5 -16 10 0 7 6 7 19 1 10 -6 22 -7 27 -3 22 19 -58 -74 -142 -164
-136 -147 -201 -172 -346 -131 -40 11 -80 19 -90 19 -9 0 -24 8 -34 19 -9 10
-25 19 -35 19 -22 0 -36 20 -21 29 7 4 8 12 1 21 -8 13 -10 13 -19 0 -8 -13
-11 -11 -16 7 -3 12 -14 25 -25 28 -11 4 -16 12 -12 21 3 7 1 14 -5 14 -6 0
-12 -5 -14 -12 -3 -7 -11 -5 -24 8 -10 10 -37 28 -59 39 -22 11 -42 22 -45 25
-3 3 -30 16 -60 30 -30 14 -58 29 -62 35 -5 6 -8 5 -8 -3 0 -7 -5 -10 -10 -7
-6 4 -7 11 -4 17 5 8 1 9 -10 5 -10 -4 -23 -4 -29 0 -6 4 -24 8 -41 10 -32 3
-59 21 -51 33 8 12 -49 19 -62 8 -10 -8 -13 -6 -13 6 0 9 -7 19 -15 22 -8 4
-12 10 -9 15 3 5 -3 12 -13 16 -25 9 -43 35 -38 52 3 7 1 19 -5 25 -5 7 -10
28 -11 47 -2 19 -7 39 -12 46 -5 7 -6 30 -2 52 4 26 2 41 -5 46 -9 6 -9 9 0
15 7 4 13 19 13 34 0 15 5 26 13 26 7 0 11 6 8 14 -3 8 3 16 15 19 20 5 26 25
21 71 -3 31 21 76 42 76 16 0 17 3 8 20 -11 20 1 60 18 60 12 0 39 66 41 103
1 14 6 17 21 12 11 -4 20 -2 20 4 0 6 5 11 11 11 6 0 9 -9 6 -20z m133 -279
c0 -6 -4 -13 -10 -16 -5 -3 -10 1 -10 9 0 9 5 16 10 16 6 0 10 -4 10 -9z m336
-66 c1 -14 -2 -25 -7 -25 -5 0 -9 -7 -9 -15 0 -8 -7 -15 -16 -15 -14 0 -14 3
-4 15 14 17 0 21 -17 4 -6 -6 -16 -8 -22 -5 -18 12 -12 43 9 49 11 3 18 2 15
-3 -3 -4 2 -11 11 -14 11 -4 15 -2 11 8 -5 13 4 22 23 25 3 1 6 -10 6 -24z
m-116 -42 c0 21 16 22 24 2 3 -9 -1 -18 -9 -21 -17 -7 -45 12 -45 30 0 6 7 2
15 -8 13 -17 15 -18 15 -3z m130 -3 c0 -5 -4 -10 -10 -10 -5 0 -10 5 -10 10 0
6 5 10 10 10 6 0 10 -4 10 -10z m120 -10 c0 -5 -4 -10 -10 -10 -5 0 -10 5 -10
10 0 6 5 10 10 10 6 0 10 -4 10 -10z m-330 -40 c0 -5 -2 -10 -4 -10 -3 0 -8 5
-11 10 -3 6 -1 10 4 10 6 0 11 -4 11 -10z m550 -54 c0 -9 -6 -16 -13 -16 -8 0
-14 12 -14 29 0 24 3 27 14 16 7 -8 13 -21 13 -29z m-50 25 c0 -13 -26 -32
-33 -24 -8 7 11 33 24 33 5 0 9 -4 9 -9z m630 -42 c0 -5 -7 -9 -15 -9 -9 0
-12 6 -9 15 6 15 24 11 24 -6z m-488 -137 c-7 -2 -10 -7 -7 -12 5 -8 -33 -44
-58 -54 -9 -3 -8 -7 3 -15 13 -9 13 -11 -2 -11 -26 0 -31 18 -8 32 11 7 20 23
20 36 0 23 35 45 55 34 5 -3 4 -7 -3 -10z m235 -147 c-4 -8 -11 -15 -17 -15
-7 0 -7 6 0 21 13 23 26 19 17 -6z m-730 -67 c-3 -8 -6 -5 -6 6 -1 11 2 17 5
13 3 -3 4 -12 1 -19z m313 -37 c0 -12 -20 -25 -27 -18 -7 7 6 27 18 27 5 0 9
-4 9 -9z m0 -51 c0 -5 -4 -10 -10 -10 -5 0 -10 5 -10 10 0 6 5 10 10 10 6 0
10 -4 10 -10z"/>
<path d="M1140 2228 c-18 -17 -43 -32 -56 -33 -28 -1 -58 -25 -31 -25 9 0 27
-11 40 -24 23 -23 27 -23 176 -21 84 2 155 5 158 8 3 3 1 12 -3 19 -5 7 -9 20
-9 28 0 10 -14 17 -40 20 -22 3 -61 18 -86 33 -63 37 -108 36 -149 -5z"/>
<path d="M1040 2219 c0 -5 5 -7 10 -4 6 3 10 8 10 11 0 2 -4 4 -10 4 -5 0 -10
-5 -10 -11z"/>
<path d="M1483 1974 c-3 -8 0 -26 7 -39 12 -23 9 -29 -68 -106 -45 -46 -82
-88 -82 -94 0 -13 42 -55 55 -55 5 0 21 12 36 26 23 22 28 24 41 10 19 -18 28
-12 21 15 -5 16 -8 18 -14 7 -5 -7 -9 -8 -9 -3 0 6 19 29 41 50 23 22 39 34
35 28 -4 -7 -2 -13 3 -13 10 0 15 14 12 33 -1 4 12 22 29 40 41 43 36 67 -20
94 -54 26 -79 29 -87 7z"/>
<path d="M1778 1765 c-2 -1 -34 -5 -73 -9 -145 -14 -175 -19 -189 -35 -21 -23
-7 -73 22 -86 15 -7 24 -22 29 -47 3 -21 9 -35 14 -32 5 3 6 -2 3 -11 -3 -8
-3 -26 0 -40 8 -32 50 -34 83 -3 20 18 27 20 42 11 29 -18 56 6 47 41 -6 24 0
35 44 81 54 58 58 69 35 102 -13 18 -48 36 -57 28z"/>
<path d="M2035 1681 c-3 -6 -11 -52 -17 -101 -10 -79 -9 -93 4 -107 15 -14 17
-14 26 3 15 29 20 206 5 211 -6 2 -14 -1 -18 -6z"/>
<path d="M815 1579 c-11 -17 1 -21 15 -4 8 9 8 15 2 15 -6 0 -14 -5 -17 -11z"/>
<path d="M2090 1567 c-19 -15 -21 -47 -9 -116 10 -59 29 -111 41 -111 5 0 8
-6 8 -13 0 -17 38 -39 52 -31 7 5 8 2 3 -6 -6 -10 -3 -12 13 -8 18 5 22 2 22
-16 0 -24 17 -46 36 -46 19 0 32 82 23 138 -9 62 -41 125 -85 171 -19 20 -34
39 -34 44 0 12 -54 7 -70 -6z"/>
<path d="M2260 860 c0 -5 5 -10 11 -10 5 0 7 5 4 10 -3 6 -8 10 -11 10 -2 0
-4 -4 -4 -10z"/>
<path d="M1737 849 c-10 -6 -27 -9 -38 -6 -12 3 -19 0 -19 -9 0 -8 7 -14 16
-14 8 0 13 -4 10 -9 -3 -5 9 -8 26 -6 30 2 55 25 28 25 -7 0 -10 7 -6 15 6 18
6 18 -17 4z"/>
<path d="M630 920 c0 -5 5 -10 11 -10 5 0 7 5 4 10 -3 6 -8 10 -11 10 -2 0 -4
-4 -4 -10z"/>
<path d="M1190 395 c-7 -9 -11 -18 -8 -20 3 -3 11 1 18 10 7 9 11 18 8 20 -3
3 -11 -1 -18 -10z"/>
<path d="M1390 290 c0 -5 5 -10 11 -10 5 0 7 5 4 10 -3 6 -8 10 -11 10 -2 0
-4 -4 -4 -10z"/>
</g>
</svg>
